<svg width="0" height="0" class="hidden">
  <symbol xmlns="http://www.w3.org/2000/svg" viewBox="0 0 448 512" id="quote-left-solid">
    <path opacity="1" fill="#1E3050" d="M0 216C0 149.7 53.7 96 120 96h8c17.7 0 32 14.3 32 32s-14.3 32-32 32h-8c-30.9 0-56 25.1-56 56v8h64c35.3 0 64 28.7 64 64v64c0 35.3-28.7 64-64 64H64c-35.3 0-64-28.7-64-64V320 288 216zm256 0c0-66.3 53.7-120 120-120h8c17.7 0 32 14.3 32 32s-14.3 32-32 32h-8c-30.9 0-56 25.1-56 56v8h64c35.3 0 64 28.7 64 64v64c0 35.3-28.7 64-64 64H320c-35.3 0-64-28.7-64-64V320 288 216z"></path>
  </symbol>
  <symbol xmlns="http://www.w3.org/2000/svg" viewBox="0 0 512 512" id="snapchat">
    <path opacity="1" fill="#1E3050" d="M496.9 366.6c-3.4-9.2-9.8-14.1-17.1-18.2-1.4-.8-2.6-1.5-3.7-1.9-2.2-1.1-4.4-2.2-6.6-3.4-22.8-12.1-40.6-27.3-53-45.4a102.9 102.9 0 0 1 -9.1-16.1c-1.1-3-1-4.7-.2-6.3a10.2 10.2 0 0 1 2.9-3c3.9-2.6 8-5.2 10.7-7 4.9-3.2 8.8-5.7 11.2-7.4 9.4-6.5 15.9-13.5 20-21.3a42.4 42.4 0 0 0 2.1-35.2c-6.2-16.3-21.6-26.4-40.3-26.4a55.5 55.5 0 0 0 -11.7 1.2c-1 .2-2.1 .5-3.1 .7 .2-11.2-.1-22.9-1.1-34.5-3.5-40.8-17.8-62.1-32.7-79.2A130.2 130.2 0 0 0 332.1 36.4C309.5 23.5 283.9 17 256 17S202.6 23.5 180 36.4a129.7 129.7 0 0 0 -33.3 26.8c-14.9 17-29.2 38.4-32.7 79.2-1 11.6-1.2 23.4-1.1 34.5-1-.3-2-.5-3.1-.7a55.5 55.5 0 0 0 -11.7-1.2c-18.7 0-34.1 10.1-40.3 26.4a42.4 42.4 0 0 0 2 35.2c4.1 7.8 10.7 14.7 20 21.3 2.5 1.7 6.4 4.2 11.2 7.4 2.6 1.7 6.5 4.2 10.3 6.7a11.1 11.1 0 0 1 3.3 3.3c.8 1.6 .8 3.4-.4 6.6a102 102 0 0 1 -8.9 15.8c-12.1 17.7-29.4 32.6-51.4 44.6C32.4 348.6 20.2 352.8 15.1 366.7c-3.9 10.5-1.3 22.5 8.5 32.6a49.1 49.1 0 0 0 12.4 9.4 134.3 134.3 0 0 0 30.3 12.1 20 20 0 0 1 6.1 2.7c3.6 3.1 3.1 7.9 7.8 14.8a34.5 34.5 0 0 0 9 9.1c10 6.9 21.3 7.4 33.2 7.8 10.8 .4 23 .9 36.9 5.5 5.8 1.9 11.8 5.6 18.7 9.9C194.8 481 217.7 495 256 495s61.3-14.1 78.1-24.4c6.9-4.2 12.9-7.9 18.5-9.8 13.9-4.6 26.2-5.1 36.9-5.5 11.9-.5 23.2-.9 33.2-7.8a34.6 34.6 0 0 0 10.2-11.2c3.4-5.8 3.3-9.9 6.6-12.8a19 19 0 0 1 5.8-2.6A134.9 134.9 0 0 0 476 408.7a48.3 48.3 0 0 0 13-10.2l.1-.1C498.4 388.5 500.7 376.9 496.9 366.6zm-34 18.3c-20.7 11.5-34.5 10.2-45.3 17.1-9.1 5.9-3.7 18.5-10.3 23.1-8.1 5.6-32.2-.4-63.2 9.9-25.6 8.5-42 32.8-88 32.8s-62-24.3-88.1-32.9c-31-10.3-55.1-4.2-63.2-9.9-6.6-4.6-1.2-17.2-10.3-23.1-10.7-6.9-24.5-5.7-45.3-17.1-13.2-7.3-5.7-11.8-1.3-13.9 75.1-36.4 87.1-92.6 87.7-96.7 .6-5 1.4-9-4.2-14.1-5.4-5-29.2-19.7-35.8-24.3-10.9-7.6-15.7-15.3-12.2-24.6 2.5-6.5 8.5-8.9 14.9-8.9a27.6 27.6 0 0 1 6 .7c12 2.6 23.7 8.6 30.4 10.2a10.7 10.7 0 0 0 2.5 .3c3.6 0 4.9-1.8 4.6-5.9-.8-13.1-2.6-38.7-.6-62.6 2.8-32.9 13.4-49.2 26-63.6 6.1-6.9 34.5-37 88.9-37s82.9 29.9 88.9 36.8c12.6 14.4 23.2 30.7 26 63.6 2.1 23.9 .3 49.5-.6 62.6-.3 4.3 1 5.9 4.6 5.9a10.6 10.6 0 0 0 2.5-.3c6.7-1.6 18.4-7.6 30.4-10.2a27.6 27.6 0 0 1 6-.7c6.4 0 12.4 2.5 14.9 8.9 3.5 9.4-1.2 17-12.2 24.6-6.6 4.6-30.4 19.3-35.8 24.3-5.6 5.1-4.8 9.1-4.2 14.1 .5 4.2 12.5 60.4 87.7 96.7C468.6 373 476.1 377.5 462.9 384.9z"></path>
  </symbol>
  <symbol xmlns="http://www.w3.org/2000/svg" viewBox="0 0 512 512" id="wordpress">
    <path opacity="1" fill="#1E3050" d="M61.7 169.4l101.5 278C92.2 413 43.3 340.2 43.3 256c0-30.9 6.6-60.1 18.4-86.6zm337.9 75.9c0-26.3-9.4-44.5-17.5-58.7-10.8-17.5-20.9-32.4-20.9-49.9 0-19.6 14.8-37.8 35.7-37.8 .9 0 1.8 .1 2.8 .2-37.9-34.7-88.3-55.9-143.7-55.9-74.3 0-139.7 38.1-177.8 95.9 5 .2 9.7 .3 13.7 .3 22.2 0 56.7-2.7 56.7-2.7 11.5-.7 12.8 16.2 1.4 17.5 0 0-11.5 1.3-24.3 2l77.5 230.4L249.8 247l-33.1-90.8c-11.5-.7-22.3-2-22.3-2-11.5-.7-10.1-18.2 1.3-17.5 0 0 35.1 2.7 56 2.7 22.2 0 56.7-2.7 56.7-2.7 11.5-.7 12.8 16.2 1.4 17.5 0 0-11.5 1.3-24.3 2l76.9 228.7 21.2-70.9c9-29.4 16-50.5 16-68.7zm-139.9 29.3l-63.8 185.5c19.1 5.6 39.2 8.7 60.1 8.7 24.8 0 48.5-4.3 70.6-12.1-.6-.9-1.1-1.9-1.5-2.9l-65.4-179.2zm183-120.7c.9 6.8 1.4 14 1.4 21.9 0 21.6-4 45.8-16.2 76.2l-65 187.9C426.2 403 468.7 334.5 468.7 256c0-37-9.4-71.8-26-102.1zM504 256c0 136.8-111.3 248-248 248C119.2 504 8 392.7 8 256 8 119.2 119.2 8 256 8c136.7 0 248 111.2 248 248zm-11.4 0c0-130.5-106.2-236.6-236.6-236.6C125.5 19.4 19.4 125.5 19.4 256S125.6 492.6 256 492.6c130.5 0 236.6-106.1 236.6-236.6z"></path>
  </symbol>
  <symbol xmlns="http://www.w3.org/2000/svg" viewBox="0 0 576 512" id="arrow-up-right-dots-solid">
    <path opacity="1" fill="#1E3050" d="M160 0c-17.7 0-32 14.3-32 32s14.3 32 32 32h50.7L9.4 265.4c-12.5 12.5-12.5 32.8 0 45.3s32.8 12.5 45.3 0L256 109.3V160c0 17.7 14.3 32 32 32s32-14.3 32-32V32c0-17.7-14.3-32-32-32H160zM576 80a48 48 0 1 0 -96 0 48 48 0 1 0 96 0zM448 208a48 48 0 1 0 -96 0 48 48 0 1 0 96 0zM400 384a48 48 0 1 0 0-96 48 48 0 1 0 0 96zm48 80a48 48 0 1 0 -96 0 48 48 0 1 0 96 0zm128 0a48 48 0 1 0 -96 0 48 48 0 1 0 96 0zM272 384a48 48 0 1 0 0-96 48 48 0 1 0 0 96zm48 80a48 48 0 1 0 -96 0 48 48 0 1 0 96 0zM144 512a48 48 0 1 0 0-96 48 48 0 1 0 0 96zM576 336a48 48 0 1 0 -96 0 48 48 0 1 0 96 0zm-48-80a48 48 0 1 0 0-96 48 48 0 1 0 0 96z"></path>
  </symbol>
  <symbol xmlns="http://www.w3.org/2000/svg" viewBox="0 0 448 512" id="bars-solid">
    <path opacity="1" fill="#1E3050" d="M0 96C0 78.3 14.3 64 32 64H416c17.7 0 32 14.3 32 32s-14.3 32-32 32H32C14.3 128 0 113.7 0 96zM0 256c0-17.7 14.3-32 32-32H416c17.7 0 32 14.3 32 32s-14.3 32-32 32H32c-17.7 0-32-14.3-32-32zM448 416c0 17.7-14.3 32-32 32H32c-17.7 0-32-14.3-32-32s14.3-32 32-32H416c17.7 0 32 14.3 32 32z"></path>
  </symbol>
  <symbol xmlns="http://www.w3.org/2000/svg" viewBox="0 0 448 512" id="check-solid">
    <path opacity="1" fill="#1E3050" d="M438.6 105.4c12.5 12.5 12.5 32.8 0 45.3l-256 256c-12.5 12.5-32.8 12.5-45.3 0l-128-128c-12.5-12.5-12.5-32.8 0-45.3s32.8-12.5 45.3 0L160 338.7 393.4 105.4c12.5-12.5 32.8-12.5 45.3 0z"></path>
  </symbol>
  <symbol xmlns="http://www.w3.org/2000/svg" viewBox="0 0 512 512" id="clock-regular">
    <path opacity="1" fill="#1E3050" d="M464 256A208 208 0 1 1 48 256a208 208 0 1 1 416 0zM0 256a256 256 0 1 0 512 0A256 256 0 1 0 0 256zM232 120V256c0 8 4 15.5 10.7 20l96 64c11 7.4 25.9 4.4 33.3-6.7s4.4-25.9-6.7-33.3L280 243.2V120c0-13.3-10.7-24-24-24s-24 10.7-24 24z"></path>
  </symbol>
  <symbol xmlns="http://www.w3.org/2000/svg" viewBox="0 0 640 512" id="computer-solid">
    <path opacity="1" fill="#1E3050" d="M384 96V320H64L64 96H384zM64 32C28.7 32 0 60.7 0 96V320c0 35.3 28.7 64 64 64H181.3l-10.7 32H96c-17.7 0-32 14.3-32 32s14.3 32 32 32H352c17.7 0 32-14.3 32-32s-14.3-32-32-32H277.3l-10.7-32H384c35.3 0 64-28.7 64-64V96c0-35.3-28.7-64-64-64H64zm464 0c-26.5 0-48 21.5-48 48V432c0 26.5 21.5 48 48 48h64c26.5 0 48-21.5 48-48V80c0-26.5-21.5-48-48-48H528zm16 64h32c8.8 0 16 7.2 16 16s-7.2 16-16 16H544c-8.8 0-16-7.2-16-16s7.2-16 16-16zm-16 80c0-8.8 7.2-16 16-16h32c8.8 0 16 7.2 16 16s-7.2 16-16 16H544c-8.8 0-16-7.2-16-16zm32 160a32 32 0 1 1 0 64 32 32 0 1 1 0-64z"></path>
  </symbol>
  <symbol xmlns="http://www.w3.org/2000/svg" viewBox="0 0 384 512" id="etsy">
    <path opacity="1" fill="#1E3050" d="M384 348c-1.8 10.8-13.8 110-15.5 132-117.9-4.3-219.9-4.7-368.5 0v-25.5c45.5-8.9 60.6-8 61-35.3 1.8-72.3 3.5-244.1 0-322-1-28.5-12.1-26.8-61-36v-25.5c73.9 2.4 255.9 8.6 363-3.8-3.5 38.3-7.8 126.5-7.8 126.5H332C320.9 115.7 313.2 68 277.3 68h-137c-10.3 0-10.8 3.5-10.8 9.8V241.5c58 .5 88.5-2.5 88.5-2.5 29.8-1 27.6-8.5 40.8-65.3h25.8c-4.4 101.4-3.9 61.8-1.8 160.3H257c-9.2-40.1-9.1-61-39.5-61.5 0 0-21.5-2-88-2v139c0 26 14.3 38.3 44.3 38.3H263c63.6 0 66.6-25 98.8-99.8H384z"></path>
  </symbol>
  <symbol xmlns="http://www.w3.org/2000/svg" viewBox="0 0 448 512" id="grip-lines-solid">
    <path opacity="1" fill="#1E3050" d="M32 288c-17.7 0-32 14.3-32 32s14.3 32 32 32l384 0c17.7 0 32-14.3 32-32s-14.3-32-32-32L32 288zm0-128c-17.7 0-32 14.3-32 32s14.3 32 32 32l384 0c17.7 0 32-14.3 32-32s-14.3-32-32-32L32 160z"></path>
  </symbol>
</svg>